<?xml version="1.0" encoding="utf-8"?>
<!-- Generator: Adobe Illustrator 27.8.0, SVG Export Plug-In . SVG Version: 6.00 Build 0)  -->
<svg version="1.1" id="Ebene_1" xmlns="http://www.w3.org/2000/svg" xmlns:xlink="http://www.w3.org/1999/xlink" x="0px" y="0px"
	 viewBox="0 0 1843.6 1740" style="enable-background:new 0 0 1843.6 1740;" xml:space="preserve">
<style type="text/css">
	.st0{fill:none;stroke:#000000;stroke-width:21;stroke-miterlimit:10;}
</style>
<g>
	<path class="st0" d="M1833.2,1404.1c-3.9,34.9-17.6,40.1-21.5,75c-5.3,47-11.3,96-37.4,135.5"/>
	<path class="st0" d="M1694.6,1440.6c20.1,67,31.4,124.5,83.3,171.4"/>
	<path class="st0" d="M1815.9,1406.3c23.9-29,15.4-71.8,5.6-108.1c-12.5-46.3-25-92.7-37.5-139c-1.8-6.6-3.6-13.3-7.7-18.8
		c-7-9.6-19.3-13.6-30.7-16.9c-70.9-21.1-142.1-41.1-213.6-60.2"/>
	<path class="st0" d="M1639.8,579.9c-38.8,22-54,70.4-58,114.8c-6,66.8,5.4,133.9,7.2,201c1.8,67.1-7.5,138.2-48.7,191.2"/>
	<path class="st0" d="M1622.4,572.1c1.9,23.8,9.9,47,22.9,67c3.6,5.6,7.6,10.9,10.8,16.7c3.9,7.3,6.3,15.3,8.2,23.3
		c5.9,24.3,8.8,51.1,26.2,69.1c8.9,9.1,20.6,14.9,32.2,20.1c5.4,2.4,11.2,4.8,16.9,3.8c13.9-2.4,18.7-22,32.2-26
		c3.9-1.2,8.6-1,11.3-4.1c2-2.3,2.2-5.6,2.3-8.6c1-30.2,1.9-60.4-0.1-90.5c-0.8-12.6-2.2-25.3,0-37.8c1.6-9.1,5.2-17.8,7.5-26.7
		c8.4-32,1.6-66.8,12.3-98c4.1-11.9,10.7-23.1,12.2-35.5c3-24.1-12.8-45.9-20.7-68.8c-15.2-44.1-0.9-92.8-7.4-138.9
		c-21.9,34-40,70.4-53.9,108.4"/>
	<path class="st0" d="M1756.3,336.2c-59.1-46.1-141.6-60.4-212.7-36.8c-75.9,25.1-133,87.5-181.2,151.2
		c-48.2,63.7-92.5,132.6-156.5,180.4"/>
	<path class="st0" d="M1099.2,498.3c-17.6-3.9-26-25-42.3-32.6c-7-3.3-15.1-3.8-22-7.3c-11.8-5.9-18.2-19.3-20.2-32.4
		c-2-13.1-0.7-26.4-1.6-39.6c-1.9-27.4-13.9-53.9-33.3-73.3c-10.2-10.3-22.5-18.6-31.3-30.1c-8.9-11.5-13.8-27.7-7-40.5"/>
	<path class="st0" d="M989.9,185.4c1.1-4.7,2.3-9.5,3.4-14.2c-9.5-2.8-17.9-21.7-15.5-31.3c10.7,1.2,23.2,5.6,32.5,0.3
		c9.3-5.4,15.7-7.7,12.4-17.9c-5.5-16.9-21.7-17.2-39.1-14.1c10.5-23.9,7.1-57,2.2-82.7c-29.6,13.4-62-10.6-94.2-14.5
		c-7.7-0.9-16.1-0.6-22.6,3.7c-10.4,6.8-12.9,21.1-11.3,33.4c1.6,12.3,6.3,24.2,6.4,36.6c0.1,6.6-1.8,14.1-7.5,17.2
		c-3.7,2-30,3.4-34.2,3.4c-21.8,0.3-14.6,25.7-5,21.7c4.1-1.7,35.4-9.9,39.2-7.6c2.8,1.7,4.3,4.9,5.3,8c5.5,16.8,0.6,35-1.7,52.5
		c-2.3,17.5-1,37.9,12.7,49.1c-15.9,4.4-23.6,22.1-28,38c-19.5,69.7-17.4,145.3,5.9,213.8c5,14.7,11,29.4,11.8,44.9
		c0.6,11.1-1.6,22.2-5.3,32.7c-25.6,71.3-114.8,97.5-157.4,160.1c-25.8,38-32,85.5-37.5,131.1"/>
	<path class="st0" d="M832,673.5c-53.8-19-108.2-37.3-164.6-46.2c-56.4-8.9-115.3-7.9-169.1,11.1c-36.8,13-71.8,34.4-110.8,36.1
		c-47.6,2.1-92.5-25.8-140.2-25.1c-50.7,0.7-96.5,34.8-123.1,78c-26.6,43.2-36.6,94.4-42.2,144.8c-5.7,51.1-7.2,103.2,3.3,153.5
		c9.5,45.4,28.4,88.1,41.9,132.5c13.5,44.3,21.6,92.3,12.4,141.3c-9.7,70.2-32.7,138.6-89.2,179.1
		c92.4-22.7,162.9-104.7,189.5-196.1c26.6-91.4,14.7-190.3-14.3-281c-14-43.7-31.9-87.1-33.6-132.9c-1.7-45.9,15.6-94.6,53.1-121.2
		c37.5-26.6,96.1-23.7,124.1-6.1c-56.6,92.5-44.6,215,5.9,310.9c25.8,48.9,62,98.9,53.2,153.5c-8.2,51.2-53.8,87.9-73.6,135.8
		c-19.8,47.9-12.2,102.6,2,152.5c14.2,49.8,34.6,98.4,39.8,150c0.6,5.4,1,11.1,4.1,15.7c3.2,4.7,8.5,7.3,13.5,10.1
		c32.3,18.3,48.6,33.1,49.3,70.2"/>
	<path class="st0" d="M1677.4,1448c-3.4-9.9,7.4-19.7,17.8-21c10.4-1.3,20.9,2.3,31.4,2c10.5-0.2,22.6-7,22.3-17.5
		c-0.2-8.5-8.2-14.5-13-21.6c-10.8-16.1-4.6-37.8,2-56.1l14.8-41c2.9-7.9,5.8-16,5.4-24.4c-0.3-7-2.9-13.8-5.6-20.2
		c-8.9-20.8-19.9-40.6-33-59c-43.1,1.7-86.2,3.5-129.3,5.2c-39.3,1.6-78.9,3.2-117.7-3c-28.9,101.1-55.9,203.4-59.4,310.7
		c-1.7,52.9,1.1,108.4,46.4,135.8c19.7,11.9,45.6,22.9,67.1,31.2c21.5,8.4,42.9,24.8,45,47.8c-59-7-119-6.1-177.8,2.6
		c-1-29.1-14.6-57.6-36.6-76.7c-4.9-4.2-10.3-8.3-12.9-14.2c-2.6-6-1.7-12.9-1-19.4c10.6-94.7-15.6-189.6-16.3-284.9
		c-0.4-59.2,9-117.9,17.9-172.3c-82.8,37.5-178.5,27.3-268.5,14.7c-55.3-7.8-110.5-16.1-165.7-25.1c-53.9-8.8-109-18.6-156.3-46.1
		c-4.9-2.9-10.1-6-15.8-6c-3.6,0-7,1.3-10.4,2.6c-31.5,11.8-62.9,23.7-94.4,35.5c-24.7,9.3-50,19-69.2,37
		c-33.9,32-42.4,84.1-75.9,116.6c26.5,16,53.1,32,79.6,48c18.4,11.1,37.2,22.5,50.3,39.5c16.2,20.8,22.2,47.5,27.7,73.2
		c13.2,61.5,24.7,131.9-13.2,182.1c-2.4,3.1-5.1,6.3-8.7,7.7c-8.3,3.2-16.9-3.3-23.1-9.7c-38.3-39.3-64.1-90.6-73-144.7
		c19.7,9.9,43.1-13,42.4-35.1c-0.8-22.1-16.3-40.5-31.3-56.8c-24.7-26.8-50.9-53.7-84.1-68.7c-24.1,77.4-23.2,162.4,2.3,239.3
		c11.6,34.7,30,70,62.4,87c22,11.6,47.9,13.3,71.2,21.8c23.4,8.6,46.3,28.7,44.3,53.5c-62.8-6.8-97.5-4.4-160,5.1"/>
	<path class="st0" d="M422.2,1145.8c-5.3,21.3-30.1,30.5-44.3,47.2c-12.7,14.8-16.6,36.3-11.4,55.1c5.2,18.8,14,30,31.1,39.5"/>
</g>
</svg>
